<svg id="Capa_1" enable-background="new 0 0 512 512" height="512" viewBox="0 0 512 512" width="512" xmlns="http://www.w3.org/2000/svg"><g><path d="m264.352 0h-16.703l-127.649 113.465v-31.912h-90v111.913l-30 26.666v291.868h512v-291.868zm174.042 377.612h43.606v37.197h-43.606zm-30 37.198h-64.786v-104.391h64.786zm-378.394-37.198h38.044v37.197h-38.044zm68.044-67.193h87.709v171.581h-87.709zm215.563 37.193h-97.854v-37.193h97.854zm-97.854 30h97.854v37.197h-97.854zm-149.731-97.193 41.846-37.196h296.264l41.846 37.196zm189.978-168.869 38.788 34.479h-77.577zm-72.538 64.478h145.077l41.844 37.194h-228.765zm298.538 96.273-211.247-187.776v-38.696l211.247 187.775zm-422-160.748h30v28.579l-30 26.667zm-30 122.051 210.753-187.336v38.697l-210.753 187.336zm2.272 76.815h35.772v37.193h-38.044v-35.174zm-2.272 134.391h38.044v37.19h-38.044zm185.753 37.19v-37.19h266.247v37.19zm266.247-134.388h-43.606v-37.193h41.334l2.272 2.02z"/></g></svg>